<svg width="164" height="50" viewBox="0 0 164 50" fill="none" xmlns="http://www.w3.org/2000/svg">
<path d="M12.376 25.32C10.1146 25.32 8.06663 24.8293 6.23196 23.848C4.41863 22.8453 2.98929 21.4693 1.94396 19.72C0.919959 17.9707 0.407959 15.9973 0.407959 13.8C0.407959 11.6027 0.930626 9.62933 1.97596 7.88C3.02129 6.13066 4.45063 4.76533 6.26396 3.784C8.09863 2.78133 10.1466 2.28 12.408 2.28C14.2426 2.28 15.9173 2.6 17.432 3.24C18.9466 3.88 20.2266 4.808 21.272 6.024L18.584 8.552C16.9626 6.80266 14.968 5.928 12.6 5.928C11.064 5.928 9.68796 6.26933 8.47196 6.952C7.25596 7.61333 6.30663 8.54133 5.62396 9.736C4.94129 10.9307 4.59996 12.2853 4.59996 13.8C4.59996 15.3147 4.94129 16.6693 5.62396 17.864C6.30663 19.0587 7.25596 19.9973 8.47196 20.68C9.68796 21.3413 11.064 21.672 12.6 21.672C14.968 21.672 16.9626 20.7867 18.584 19.016L21.272 21.576C20.2266 22.792 18.936 23.72 17.4 24.36C15.8853 25 14.2106 25.32 12.376 25.32Z" fill="white"/>
<path d="M24.874 1.256H28.874V25H24.874V1.256Z" fill="white"/>
<path d="M34.124 7.912H38.124V25H34.124V7.912ZM36.14 5.096C35.4146 5.096 34.8066 4.872 34.316 4.424C33.8253 3.95466 33.58 3.37866 33.58 2.696C33.58 2.01333 33.8253 1.448 34.316 0.999996C34.8066 0.530664 35.4146 0.295998 36.14 0.295998C36.8653 0.295998 37.4733 0.519997 37.964 0.967997C38.4546 1.39466 38.7 1.93866 38.7 2.6C38.7 3.304 38.4546 3.90133 37.964 4.392C37.4946 4.86133 36.8866 5.096 36.14 5.096Z" fill="white"/>
<path d="M51.214 25.224C49.4433 25.224 47.854 24.8507 46.446 24.104C45.038 23.3573 43.9393 22.3227 43.15 21C42.3606 19.656 41.966 18.1413 41.966 16.456C41.966 14.7707 42.3606 13.2667 43.15 11.944C43.9393 10.6213 45.0273 9.58666 46.414 8.84C47.822 8.09333 49.422 7.72 51.214 7.72C52.8993 7.72 54.3713 8.06133 55.63 8.744C56.91 9.42666 57.87 10.408 58.51 11.688L55.438 13.48C54.9473 12.6907 54.3286 12.104 53.582 11.72C52.8566 11.3147 52.0566 11.112 51.182 11.112C49.6886 11.112 48.4513 11.6027 47.47 12.584C46.4886 13.544 45.998 14.8347 45.998 16.456C45.998 18.0773 46.478 19.3787 47.438 20.36C48.4193 21.32 49.6673 21.8 51.182 21.8C52.0566 21.8 52.8566 21.608 53.582 21.224C54.3286 20.8187 54.9473 20.2213 55.438 19.432L58.51 21.224C57.8486 22.504 56.878 23.496 55.598 24.2C54.3393 24.8827 52.878 25.224 51.214 25.224Z" fill="white"/>
<path d="M68.7875 17.672L65.8115 20.488V25H61.8115V1.256H65.8115V15.592L74.0995 7.912H78.8995L71.7635 15.08L79.5715 25H74.7075L68.7875 17.672Z" fill="white"/>
<path d="M98.4112 13.352C99.6486 13.7573 100.63 14.44 101.355 15.4C102.081 16.3387 102.443 17.512 102.443 18.92C102.443 20.8613 101.697 22.3653 100.203 23.432C98.7099 24.4773 96.5339 25 93.6752 25H82.5392V2.6H93.0352C95.6805 2.6 97.7179 3.12266 99.1472 4.168C100.577 5.192 101.291 6.61066 101.291 8.424C101.291 9.53333 101.035 10.5147 100.523 11.368C100.011 12.2213 99.3072 12.8827 98.4112 13.352ZM86.6992 5.864V12.04H92.5872C94.0379 12.04 95.1472 11.784 95.9152 11.272C96.7045 10.7387 97.0992 9.97066 97.0992 8.968C97.0992 7.944 96.7045 7.176 95.9152 6.664C95.1472 6.13066 94.0379 5.864 92.5872 5.864H86.6992ZM93.4192 21.736C96.6405 21.736 98.2512 20.6587 98.2512 18.504C98.2512 16.3493 96.6405 15.272 93.4192 15.272H86.6992V21.736H93.4192Z" fill="white"/>
<path d="M113.027 7.72C115.544 7.72 117.464 8.328 118.787 9.544C120.131 10.7387 120.803 12.552 120.803 14.984V25H117.027V22.92C116.536 23.6667 115.832 24.2427 114.915 24.648C114.019 25.032 112.931 25.224 111.651 25.224C110.371 25.224 109.251 25.0107 108.291 24.584C107.331 24.136 106.584 23.528 106.051 22.76C105.539 21.9707 105.283 21.0853 105.283 20.104C105.283 18.568 105.848 17.3413 106.979 16.424C108.131 15.4853 109.934 15.016 112.387 15.016H116.803V14.76C116.803 13.5653 116.44 12.648 115.715 12.008C115.011 11.368 113.955 11.048 112.547 11.048C111.587 11.048 110.638 11.1973 109.699 11.496C108.782 11.7947 108.003 12.2107 107.363 12.744L105.795 9.832C106.691 9.14933 107.768 8.62666 109.027 8.264C110.286 7.90133 111.619 7.72 113.027 7.72ZM112.483 22.312C113.486 22.312 114.371 22.088 115.139 21.64C115.928 21.1707 116.483 20.5093 116.803 19.656V17.672H112.675C110.371 17.672 109.219 18.4293 109.219 19.944C109.219 20.6693 109.507 21.2453 110.083 21.672C110.659 22.0987 111.459 22.312 112.483 22.312Z" fill="white"/>
<path d="M125.936 7.912H129.936V25H125.936V7.912ZM127.952 5.096C127.227 5.096 126.619 4.872 126.128 4.424C125.638 3.95466 125.392 3.37866 125.392 2.696C125.392 2.01333 125.638 1.448 126.128 0.999996C126.619 0.530664 127.227 0.295998 127.952 0.295998C128.678 0.295998 129.286 0.519997 129.776 0.967997C130.267 1.39466 130.512 1.93866 130.512 2.6C130.512 3.304 130.267 3.90133 129.776 4.392C129.307 4.86133 128.699 5.096 127.952 5.096Z" fill="white"/>
<path d="M145.458 24.072C144.989 24.456 144.413 24.744 143.73 24.936C143.069 25.128 142.365 25.224 141.618 25.224C139.741 25.224 138.29 24.7333 137.266 23.752C136.242 22.7707 135.73 21.3413 135.73 19.464V11.24H132.914V8.04H135.73V4.136H139.73V8.04H144.306V11.24H139.73V19.368C139.73 20.2 139.933 20.84 140.338 21.288C140.744 21.7147 141.33 21.928 142.098 21.928C142.994 21.928 143.741 21.6933 144.338 21.224L145.458 24.072Z" fill="white"/>
<path d="M2.00796 26.6H6.16796V49H2.00796V26.6Z" fill="white"/>
<path d="M21.5387 31.72C23.6934 31.72 25.4214 32.3493 26.7227 33.608C28.024 34.8667 28.6747 36.7333 28.6747 39.208V49H24.6747V39.72C24.6747 38.2267 24.3227 37.1067 23.6187 36.36C22.9147 35.592 21.912 35.208 20.6107 35.208C19.1387 35.208 17.976 35.656 17.1227 36.552C16.2694 37.4267 15.8427 38.696 15.8427 40.36V49H11.8427V31.912H15.6507V34.12C16.312 33.3307 17.144 32.7333 18.1467 32.328C19.1494 31.9227 20.28 31.72 21.5387 31.72Z" fill="white"/>
<path d="M50.6412 25.256V49H46.8012V46.792C46.1399 47.6027 45.3185 48.2107 44.3372 48.616C43.3772 49.0213 42.3105 49.224 41.1372 49.224C39.4945 49.224 38.0119 48.8613 36.6892 48.136C35.3879 47.4107 34.3639 46.3867 33.6172 45.064C32.8705 43.72 32.4972 42.184 32.4972 40.456C32.4972 38.728 32.8705 37.2027 33.6172 35.88C34.3639 34.5573 35.3879 33.5333 36.6892 32.808C38.0119 32.0827 39.4945 31.72 41.1372 31.72C42.2679 31.72 43.3025 31.912 44.2412 32.296C45.1799 32.68 45.9799 33.256 46.6412 34.024V25.256H50.6412ZM41.6172 45.8C42.5772 45.8 43.4412 45.5867 44.2092 45.16C44.9772 44.712 45.5852 44.0827 46.0332 43.272C46.4812 42.4613 46.7052 41.5227 46.7052 40.456C46.7052 39.3893 46.4812 38.4507 46.0332 37.64C45.5852 36.8293 44.9772 36.2107 44.2092 35.784C43.4412 35.336 42.5772 35.112 41.6172 35.112C40.6572 35.112 39.7932 35.336 39.0252 35.784C38.2572 36.2107 37.6492 36.8293 37.2012 37.64C36.7532 38.4507 36.5292 39.3893 36.5292 40.456C36.5292 41.5227 36.7532 42.4613 37.2012 43.272C37.6492 44.0827 38.2572 44.712 39.0252 45.16C39.7932 45.5867 40.6572 45.8 41.6172 45.8Z" fill="white"/>
<path d="M72.418 31.912V49H68.61V46.824C67.97 47.592 67.17 48.1893 66.21 48.616C65.25 49.0213 64.2153 49.224 63.106 49.224C60.8233 49.224 59.0206 48.5947 57.698 47.336C56.3966 46.056 55.746 44.168 55.746 41.672V31.912H59.746V41.128C59.746 42.664 60.0873 43.816 60.77 44.584C61.474 45.3307 62.466 45.704 63.746 45.704C65.1753 45.704 66.306 45.2667 67.138 44.392C67.9913 43.496 68.418 42.216 68.418 40.552V31.912H72.418Z" fill="white"/>
<path d="M82.9352 49.224C81.5485 49.224 80.1939 49.0427 78.8712 48.68C77.5485 48.3173 76.4925 47.8587 75.7032 47.304L77.2392 44.264C78.0072 44.776 78.9245 45.192 79.9912 45.512C81.0792 45.8107 82.1459 45.96 83.1912 45.96C85.5806 45.96 86.7752 45.3307 86.7752 44.072C86.7752 43.4747 86.4659 43.0587 85.8472 42.824C85.2499 42.5893 84.2792 42.3653 82.9352 42.152C81.5272 41.9387 80.3752 41.6933 79.4792 41.416C78.6045 41.1387 77.8365 40.6587 77.1752 39.976C76.5352 39.272 76.2152 38.3013 76.2152 37.064C76.2152 35.4427 76.8872 34.152 78.2312 33.192C79.5965 32.2107 81.4312 31.72 83.7352 31.72C84.9085 31.72 86.0819 31.8587 87.2552 32.136C88.4285 32.392 89.3885 32.744 90.1352 33.192L88.5992 36.232C87.1485 35.3787 85.5165 34.952 83.7032 34.952C82.5299 34.952 81.6339 35.1333 81.0152 35.496C80.4179 35.8373 80.1192 36.296 80.1192 36.872C80.1192 37.512 80.4392 37.9707 81.0792 38.248C81.7405 38.504 82.7539 38.7493 84.1192 38.984C85.4845 39.1973 86.6045 39.4427 87.4792 39.72C88.3539 39.9973 89.1005 40.4667 89.7192 41.128C90.3592 41.7893 90.6792 42.728 90.6792 43.944C90.6792 45.544 89.9859 46.824 88.5992 47.784C87.2125 48.744 85.3245 49.224 82.9352 49.224Z" fill="white"/>
<path d="M104.396 48.072C103.927 48.456 103.351 48.744 102.668 48.936C102.007 49.128 101.303 49.224 100.556 49.224C98.6786 49.224 97.228 48.7333 96.204 47.752C95.18 46.7707 94.668 45.3413 94.668 43.464V35.24H91.852V32.04H94.668V28.136H98.668V32.04H103.244V35.24H98.668V43.368C98.668 44.2 98.8706 44.84 99.276 45.288C99.6813 45.7147 100.268 45.928 101.036 45.928C101.932 45.928 102.679 45.6933 103.276 45.224L104.396 48.072Z" fill="white"/>
<path d="M111.494 34.408C112.646 32.616 114.673 31.72 117.574 31.72V35.528C117.233 35.464 116.924 35.432 116.646 35.432C115.089 35.432 113.873 35.8907 112.998 36.808C112.124 37.704 111.686 39.0053 111.686 40.712V49H107.686V31.912H111.494V34.408Z" fill="white"/>
<path d="M120.968 31.912H124.968V49H120.968V31.912ZM122.984 29.096C122.258 29.096 121.65 28.872 121.16 28.424C120.669 27.9547 120.424 27.3787 120.424 26.696C120.424 26.0133 120.669 25.448 121.16 25C121.65 24.5307 122.258 24.296 122.984 24.296C123.709 24.296 124.317 24.52 124.808 24.968C125.298 25.3947 125.544 25.9387 125.544 26.6C125.544 27.304 125.298 27.9013 124.808 28.392C124.338 28.8613 123.73 29.096 122.984 29.096Z" fill="white"/>
<path d="M146.282 40.552C146.282 40.8293 146.26 41.224 146.218 41.736H132.81C133.044 42.9947 133.652 43.9973 134.634 44.744C135.636 45.4693 136.874 45.832 138.346 45.832C140.223 45.832 141.77 45.2133 142.986 43.976L145.13 46.44C144.362 47.3573 143.391 48.0507 142.218 48.52C141.044 48.9893 139.722 49.224 138.25 49.224C136.372 49.224 134.719 48.8507 133.29 48.104C131.86 47.3573 130.751 46.3227 129.962 45C129.194 43.656 128.81 42.1413 128.81 40.456C128.81 38.792 129.183 37.2987 129.93 35.976C130.698 34.632 131.754 33.5867 133.098 32.84C134.442 32.0933 135.956 31.72 137.642 31.72C139.306 31.72 140.788 32.0933 142.09 32.84C143.412 33.5653 144.436 34.6 145.162 35.944C145.908 37.2667 146.282 38.8027 146.282 40.552ZM137.642 34.92C136.362 34.92 135.274 35.304 134.378 36.072C133.503 36.8187 132.97 37.8213 132.778 39.08H142.474C142.303 37.8427 141.78 36.84 140.906 36.072C140.031 35.304 138.943 34.92 137.642 34.92Z" fill="white"/>
<path d="M155.404 49.224C154.017 49.224 152.663 49.0427 151.34 48.68C150.017 48.3173 148.961 47.8587 148.172 47.304L149.708 44.264C150.476 44.776 151.393 45.192 152.46 45.512C153.548 45.8107 154.615 45.96 155.66 45.96C158.049 45.96 159.244 45.3307 159.244 44.072C159.244 43.4747 158.935 43.0587 158.316 42.824C157.719 42.5893 156.748 42.3653 155.404 42.152C153.996 41.9387 152.844 41.6933 151.948 41.416C151.073 41.1387 150.305 40.6587 149.644 39.976C149.004 39.272 148.684 38.3013 148.684 37.064C148.684 35.4427 149.356 34.152 150.7 33.192C152.065 32.2107 153.9 31.72 156.204 31.72C157.377 31.72 158.551 31.8587 159.724 32.136C160.897 32.392 161.857 32.744 162.604 33.192L161.068 36.232C159.617 35.3787 157.985 34.952 156.172 34.952C154.999 34.952 154.103 35.1333 153.484 35.496C152.887 35.8373 152.588 36.296 152.588 36.872C152.588 37.512 152.908 37.9707 153.548 38.248C154.209 38.504 155.223 38.7493 156.588 38.984C157.953 39.1973 159.073 39.4427 159.948 39.72C160.823 39.9973 161.569 40.4667 162.188 41.128C162.828 41.7893 163.148 42.728 163.148 43.944C163.148 45.544 162.455 46.824 161.068 47.784C159.681 48.744 157.793 49.224 155.404 49.224Z" fill="white"/>
</svg>
