<svg width="443" height="366" viewBox="0 0 443 366" fill="none" xmlns="http://www.w3.org/2000/svg">
<path d="M442.946 365.997H326.021C308.105 297.163 268.031 234.929 212.397 189.668C151.813 140.399 78.4997 114.232 0 114.232V0.136719C103.252 0.136719 204.382 35.9684 284.296 101.031C363.267 165.151 418.665 254.966 440.353 353.739C441.296 357.747 442.239 361.99 442.946 365.997Z" fill="#34DDF4"/>
<path d="M442.946 365.999H326.022C313.292 316.73 289.247 270.997 256.244 232.337V79.8164C265.909 86.417 275.339 93.489 284.532 101.033C363.504 165.152 418.901 254.967 440.589 353.74C441.296 357.984 442.239 361.991 442.946 365.999Z" fill="#34DDF4"/>
<path d="M256.008 79.8151V232.336C242.807 217.013 228.191 202.633 212.397 189.668C151.813 140.399 78.4997 114.232 0 114.232V0.136719C91.4651 0.136719 181.044 28.1892 256.008 79.8151Z" fill="#51AEC6"/>
</svg>
