<svg width="12" height="10" viewBox="0 0 12 10" fill="none" xmlns="http://www.w3.org/2000/svg">
<path d="M12 0.00560404C11.4777 0.382047 10.8993 0.669966 10.2873 0.858272C9.95877 0.472348 9.52218 0.198815 9.03656 0.074668C8.55095 -0.0494792 8.03973 -0.0182508 7.57204 0.16413C7.10436 0.34651 6.70279 0.671243 6.42163 1.09441C6.14047 1.51757 5.99329 2.01876 6 2.53017V3.08747C5.04144 3.11286 4.0916 2.89565 3.2351 2.45518C2.37859 2.01471 1.64199 1.36465 1.09091 0.562903C1.09091 0.562903 -1.09091 5.5786 3.81818 7.80779C2.69483 8.58688 1.35663 8.97753 0 8.92239C4.90909 11.7089 10.9091 8.92239 10.9091 2.51345C10.9086 2.35822 10.894 2.20337 10.8655 2.05089C11.4221 1.48997 11.815 0.781762 12 0.00560404Z" fill="#201D1E"/>
</svg>
