<svg width="20" height="18" viewBox="0 0 20 18" fill="none" xmlns="http://www.w3.org/2000/svg">
<path d="M6.14973 8.88387C6.93403 9.23226 7.54011 9.79353 7.96791 10.5677C8.43136 11.3032 8.6631 12.1935 8.6631 13.2387C8.6631 14.6323 8.25313 15.7742 7.43316 16.6645C6.61318 17.5549 5.59713 18 4.38503 18C3.1016 18 2.04991 17.5549 1.22995 16.6645C0.409981 15.7742 0 14.6323 0 13.2387C0 12.5419 0.0713014 11.8645 0.213904 11.2065C0.392158 10.5484 0.713014 9.56128 1.17647 8.24516L4.01069 0H8.28877L6.14973 8.88387ZM17.4866 8.88387C18.2709 9.23226 18.877 9.79353 19.3048 10.5677C19.7683 11.3032 20 12.1935 20 13.2387C20 14.6323 19.59 15.7742 18.7701 16.6645C17.9501 17.5549 16.934 18 15.7219 18C14.4385 18 13.3868 17.5549 12.5668 16.6645C11.7469 15.7742 11.3369 14.6323 11.3369 13.2387C11.3369 12.5419 11.4082 11.8645 11.5508 11.2065C11.7291 10.5484 12.0499 9.56128 12.5134 8.24516L15.3476 0H19.6257L17.4866 8.88387Z" fill="white"/>
</svg>
